# xmcd
#
# Track frame offsets: 
#        150
#        10107
#        26777
#        41957
#        60730
#        71507
#        86365
#        102910
#        114437
#        133840
#        146485
#        158815
#        176785
#
# Disc length: 2632 seconds
#
# Revision: 1
# Processed by: cddbd v1.4PL0 Copyright (c) Steve Scherf et al.
# Submitted via: ExactAudioCopy v0.95a3
#
DISCID=b20a460d
DTITLE=Billy Lee Riley - Blue Collar Blues
DYEAR=1992
DGENRE=Rockabilly
TTITLE0=The Little Green men
TTITLE1=Come and Get It
TTITLE2=I'm Down Now
TTITLE3=Perfect Woman
TTITLE4=All Over Again
TTITLE5=Living The Blues
TTITLE6=Calhoun City
TTITLE7=Rock It Billy
TTITLE8=Stranded
TTITLE9=The Blues Come Around
TTITLE10=Back Door Sally
TTITLE11=You Did a Number on Me
TTITLE12=Blue Collar Blues
EXTD=(c)1992 Hightone Records\nupc 012928804028
EXTT0=The Little Green Men
EXTT1=
EXTT2=
EXTT3=
EXTT4=
EXTT5=
EXTT6=
EXTT7=
EXTT8=
EXTT9=
EXTT10=
EXTT11=
EXTT12=
PLAYORDER=
